<svg xmlns="http://www.w3.org/2000/svg" viewBox="0 0 512 512" width="512" height="512" role="img" aria-label="My Shelf">
  <rect width="512" height="512" fill="#faf7f2"/>
  <!-- left page -->
  <path d="M104 148c44-20 96-20 140 2v226c-44-22-96-22-140-2z" fill="#0f766e"/>
  <!-- right page -->
  <path d="M408 148c-44-20-96-20-140 2v226c44-22 96-22 140-2z" fill="#115e59"/>
  <!-- spine -->
  <rect x="248" y="142" width="16" height="240" rx="8" fill="#44403c"/>
  <!-- page lines -->
  <g stroke="#99f6e4" stroke-width="9" stroke-linecap="round" opacity=".65">
    <path d="M140 196h74M140 232h74M140 268h58"/>
  </g>
  <g stroke="#5eead4" stroke-width="9" stroke-linecap="round" opacity=".5">
    <path d="M298 196h74M298 232h74M298 268h58"/>
  </g>
  <!-- bookmark -->
  <path d="M330 130h54v104l-27-23-27 23z" fill="#f59e0b"/>
</svg>
